<svg width="512" height="500" viewBox="0 0 512 500" version="1.1" xmlns="http://www.w3.org/2000/svg" xmlns:xlink="http://www.w3.org/1999/xlink">
<title>dadata-logo</title>
<desc>Created using Figma</desc>
<g id="Canvas" transform="matrix(12.8 0 0 12.8 1267.2 2342.4)">
<g id="dadata-logo">
<g id="Rectangle">
<use xlink:href="#path0_fill" transform="translate(-99 -183)" fill="#EF4741"/>
</g>
<g id="Vector">
<use xlink:href="#path1_fill" transform="translate(-88.96 -174.88)" fill="#FFFFFF"/>
</g>
</g>
</g>
<defs>
<path id="path0_fill" d="M 0 3C 0 1.34315 1.34315 0 3 0L 37 0C 38.6569 0 40 1.34315 40 3L 40 36C 40 37.6569 38.6569 39 37 39L 3 39C 1.34315 39 0 37.6569 0 36L 0 3Z"/>
<path id="path1_fill" d="M 9.11 0L 0 0L 0 22.68L 10.18 22.68C 14.02 22.68 20.36 22.33 20.36 15.8L 20.36 6.89C 20.36 0.349999 13 0 9.14 0L 9.11 0ZM 14.88 15.2C 14.88 18.47 12.5 18.8 9.79 18.8L 5.41 18.8L 5.41 3.88L 8.77 3.88C 11.48 3.88 14.91 4.21 14.91 7.48L 14.88 15.2Z"/>
</defs>
</svg>
